<svg width="51" height="10" viewBox="0 0 51 10" fill="none" xmlns="http://www.w3.org/2000/svg">
<rect x="38.1669" y="2.2007" width="5" height="1" fill="#FF7700"/>
<rect x="38.1669" y="0.200699" width="12" height="1" fill="#FF7700"/>
<path d="M2.68692 4.44898H0.16692C0.20692 3.46498 0.39492 2.66898 0.73092 2.06098C1.06692 1.45298 1.52292 1.00898 2.09892 0.728981C2.68292 0.440981 3.35092 0.296981 4.10292 0.296981C4.38292 0.296981 4.67492 0.320981 4.97892 0.36898C5.28292 0.416981 5.59492 0.472981 5.91492 0.536981L5.69892 2.50498C5.43492 2.45698 5.20692 2.42098 5.01492 2.39698C4.83092 2.36498 4.64292 2.34898 4.45092 2.34898C4.05892 2.34898 3.73492 2.40898 3.47892 2.52898C3.22292 2.64898 3.03092 2.86098 2.90292 3.16498C2.78292 3.46898 2.71092 3.89698 2.68692 4.44898ZM4.15092 9.15298V6.40498L3.49092 4.76098H6.31092V8.62498C6.05492 8.79298 5.73492 8.92098 5.35092 9.00898C4.97492 9.08898 4.57492 9.13698 4.15092 9.15298ZM3.55092 7.10098V9.14098C2.87892 9.10098 2.29092 8.93698 1.78692 8.64898C1.29092 8.36098 0.90292 7.92498 0.62292 7.34098C0.35092 6.74898 0.19892 5.98498 0.16692 5.04898H2.68692C2.70292 5.65698 2.77492 6.12098 2.90292 6.44098C3.03092 6.76098 3.24692 6.98098 3.55092 7.10098Z" fill="url(#paint0_linear_1_73)"/>
<path d="M7.02942 2.75698C7.02942 1.50959 8.1347 0.551687 9.36942 0.728981V0.728981V9.03298H7.02942V2.75698Z" fill="url(#paint1_linear_1_73)"/>
<path d="M10.0313 2.31298V0.392981H16.0793L15.7193 2.31298H10.0313ZM11.7833 2.91298H14.1353V9.03298H11.7833V2.91298Z" fill="url(#paint2_linear_1_73)"/>
<path d="M19.2356 3.48898L18.2516 5.58898L17.7476 5.36098C17.2756 5.14498 16.9116 4.85698 16.6556 4.49698C16.3996 4.13698 16.2716 3.61298 16.2716 2.92498C16.2716 2.04498 16.4996 1.38898 16.9556 0.956981C17.4196 0.516981 18.1836 0.292981 19.2476 0.284981C19.6876 0.284981 20.0876 0.304981 20.4476 0.344981C20.8076 0.384981 21.0956 0.428981 21.3116 0.47698C21.5276 0.516981 21.6356 0.536981 21.6356 0.536981L21.3956 2.46898C21.3956 2.46898 21.2956 2.45698 21.0956 2.43298C20.9036 2.40898 20.6636 2.38898 20.3756 2.37298C20.0876 2.34898 19.8076 2.33698 19.5356 2.33698C19.2476 2.33698 19.0276 2.38098 18.8756 2.46898C18.7316 2.54898 18.6596 2.70498 18.6596 2.93698C18.6596 3.06498 18.7116 3.16898 18.8156 3.24898C18.9196 3.32898 19.0596 3.40898 19.2356 3.48898ZM18.8036 5.85298L19.7996 3.72898L20.3156 3.95698C20.8596 4.19698 21.2556 4.49698 21.5036 4.85698C21.7516 5.20898 21.8756 5.71298 21.8756 6.36898C21.8756 7.25698 21.6436 7.94098 21.1796 8.42098C20.7156 8.90098 19.9516 9.14498 18.8876 9.15298C18.3596 9.15298 17.8676 9.11698 17.4116 9.04498C16.9556 8.98098 16.5516 8.90498 16.1996 8.81698L16.4396 6.88498C16.4396 6.88498 16.5356 6.90098 16.7276 6.93298C16.9276 6.96498 17.1916 6.99698 17.5196 7.02898C17.8476 7.06098 18.2076 7.07698 18.5996 7.07698C18.9036 7.07698 19.1316 7.03298 19.2836 6.94498C19.4356 6.85698 19.5116 6.71298 19.5116 6.51298C19.5116 6.37698 19.4756 6.26898 19.4036 6.18898C19.3316 6.10898 19.2036 6.02898 19.0196 5.94898L18.8036 5.85298Z" fill="url(#paint3_linear_1_73)"/>
<path d="M25.7956 9.14098V7.19698C25.9876 7.06098 26.0836 6.69298 26.0836 6.09298V0.392981H28.4236V5.98498C28.4236 7.03298 28.2076 7.80898 27.7756 8.31298C27.3436 8.81698 26.6836 9.09298 25.7956 9.14098ZM25.1956 7.22098V9.14098C24.2996 9.10098 23.6316 8.82898 23.1916 8.32498C22.7596 7.82098 22.5436 7.04098 22.5436 5.98498V0.392981H24.8836V6.09298C24.8836 6.70898 24.9876 7.08498 25.1956 7.22098Z" fill="url(#paint4_linear_1_73)"/>
<path d="M33.7582 7.25698H32.5462L28.5502 0.392981H31.5262L33.2062 4.00498L34.8862 0.392981H37.2262L33.7582 7.25698ZM34.8142 6.44098L37.0942 1.90498V9.03298H34.8142V6.44098ZM29.3302 2.84098L31.6102 6.87298V9.03298H29.3302V2.84098Z" fill="url(#paint5_linear_1_73)"/>
<defs>
<linearGradient id="paint0_linear_1_73" x1="20.0772" y1="4.59198" x2="20.5613" y2="6.06682" gradientUnits="userSpaceOnUse">
<stop offset="0.81"/>
<stop offset="0.835276" stop-color="#FF7700"/>
</linearGradient>
<linearGradient id="paint1_linear_1_73" x1="20.0772" y1="4.59198" x2="20.5613" y2="6.06682" gradientUnits="userSpaceOnUse">
<stop offset="0.81"/>
<stop offset="0.835276" stop-color="#FF7700"/>
</linearGradient>
<linearGradient id="paint2_linear_1_73" x1="20.0772" y1="4.59198" x2="20.5613" y2="6.06682" gradientUnits="userSpaceOnUse">
<stop offset="0.81"/>
<stop offset="0.835276" stop-color="#FF7700"/>
</linearGradient>
<linearGradient id="paint3_linear_1_73" x1="20.0772" y1="4.59198" x2="20.5613" y2="6.06682" gradientUnits="userSpaceOnUse">
<stop offset="0.81"/>
<stop offset="0.835276" stop-color="#FF7700"/>
</linearGradient>
<linearGradient id="paint4_linear_1_73" x1="20.0772" y1="4.59198" x2="20.5613" y2="6.06682" gradientUnits="userSpaceOnUse">
<stop offset="0.81"/>
<stop offset="0.835276" stop-color="#FF7700"/>
</linearGradient>
<linearGradient id="paint5_linear_1_73" x1="20.0772" y1="4.59198" x2="20.5613" y2="6.06682" gradientUnits="userSpaceOnUse">
<stop offset="0.81"/>
<stop offset="0.835276" stop-color="#FF7700"/>
</linearGradient>
</defs>
</svg>
