<svg width="7" height="10" viewBox="0 0 7 10" fill="none" xmlns="http://www.w3.org/2000/svg">
<path d="M2.52 5.152H0C0.04 4.168 0.228 3.372 0.564 2.764C0.9 2.156 1.356 1.712 1.932 1.432C2.516 1.144 3.184 0.999998 3.936 0.999998C4.216 0.999998 4.508 1.024 4.812 1.072C5.116 1.12 5.428 1.176 5.748 1.24L5.532 3.208C5.268 3.16 5.04 3.124 4.848 3.1C4.664 3.068 4.476 3.052 4.284 3.052C3.892 3.052 3.568 3.112 3.312 3.232C3.056 3.352 2.864 3.564 2.736 3.868C2.616 4.172 2.544 4.6 2.52 5.152ZM3.984 9.856V7.108L3.324 5.464H6.144V9.328C5.888 9.496 5.568 9.624 5.184 9.712C4.808 9.792 4.408 9.84 3.984 9.856ZM3.384 7.804V9.844C2.712 9.804 2.124 9.64 1.62 9.352C1.124 9.064 0.736 8.628 0.456 8.044C0.184 7.452 0.032 6.688 0 5.752H2.52C2.536 6.36 2.608 6.824 2.736 7.144C2.864 7.464 3.08 7.684 3.384 7.804Z" fill="url(#paint0_angular_1_54)"/>
<path d="M0.709143 0.481942C0.664125 0.246271 0.865115 0.0366359 1.10247 0.0716966L3.31195 1.44675C4.04259 1.90147 3.89578 3.00541 3.07168 3.25336L2.75516 3.34859C2.64977 3.3803 2.55239 3.43418 2.46955 3.50661L2.12487 3.80798C1.82872 4.06691 1.36333 3.90656 1.28952 3.52017L0.709143 0.481942Z" fill="url(#paint1_angular_1_54)"/>
<defs>
<radialGradient id="paint0_angular_1_54" cx="0" cy="0" r="1" gradientUnits="userSpaceOnUse" gradientTransform="translate(6 8) rotate(-26.565) scale(5.59017 1.33677e-06)">
<stop offset="0.25" stop-color="white"/>
<stop offset="0.75" stop-color="#FF7700"/>
</radialGradient>
<radialGradient id="paint1_angular_1_54" cx="0" cy="0" r="1" gradientUnits="userSpaceOnUse" gradientTransform="translate(6 8) rotate(-26.565) scale(5.59017 1.33677e-06)">
<stop offset="0.25" stop-color="white"/>
<stop offset="0.75" stop-color="#FF7700"/>
</radialGradient>
</defs>
</svg>
